<?xml version="1.0" encoding="utf-8"?>
<!-- Generator: Adobe Illustrator 22.1.0, SVG Export Plug-In . SVG Version: 6.00 Build 0)  -->
<svg version="1.1"
	 id="svg2" xmlns:cc="http://creativecommons.org/ns#" xmlns:dc="http://purl.org/dc/elements/1.1/" xmlns:rdf="http://www.w3.org/1999/02/22-rdf-syntax-ns#" xmlns:svg="http://www.w3.org/2000/svg"
	 xmlns="http://www.w3.org/2000/svg" xmlns:xlink="http://www.w3.org/1999/xlink" x="0px" y="0px" viewBox="0 0 50 50"
	 style="enable-background:new 0 0 50 50;" xml:space="preserve">
<style type="text/css">
	.st0{fill:none;stroke:#000000;stroke-width:1.688;stroke-linecap:round;stroke-linejoin:round;}
	.st1{fill:none;stroke:#000000;stroke-width:1.3451;stroke-linecap:round;stroke-linejoin:round;}
	.st2{fill:#A9A9A9;stroke:#000000;stroke-width:1.3451;stroke-linecap:round;stroke-linejoin:round;}
	.st3{fill:none;stroke:#000000;stroke-width:1.3504;stroke-linecap:round;stroke-linejoin:round;}
	.st4{fill:none;stroke:#000000;stroke-width:1.35;stroke-linecap:round;stroke-linejoin:round;stroke-miterlimit:3;}
	.st5{fill:none;}
</style>
<g id="surface1">
	<path id="path5" class="st0" d="M0.9,25.4h8.3"/>
	<path id="path7" class="st1" d="M41.6,25h7.6"/>
	<path id="path9" class="st2" d="M43.9,25c0.1-6.6-3.4-12.7-9.2-16c-5.7-3.3-12.8-3.3-18.6,0c-5.7,3.3-9.3,9.4-9.2,16
		c-0.1,6.6,3.4,12.7,9.2,16c5.7,3.3,12.8,3.3,18.6,0C40.4,37.7,43.9,31.6,43.9,25"/>
	<path id="path11" class="st3" d="M16.1,9.2l25,6.9"/>
	<path id="path13" class="st3" d="M16.1,41l25-6.5"/>
	<path id="path19" class="st4" d="M29.6,25.4l-7.1-9.6"/>
	<path id="path21" class="st4" d="M29.6,25.4L22.6,35"/>
	<path id="path23" class="st4" d="M22.1,25.4l-7.1-9.6"/>
	<path id="path25" class="st4" d="M22.1,25.4l-7.1,9.6"/>
</g>
<rect class="st5" width="50" height="50"/>
</svg>
